<svg id="Jupiter" xmlns="http://www.w3.org/2000/svg" viewBox="0 0 4096 4096"><defs><style>.cls-1{fill:#3d6da2;}.cls-2{fill:#bdd046;}</style></defs><title>Erde_Aequator</title><g id="Erde"><circle class="cls-1" cx="2049.92" cy="2048" r="1585.04"/><path class="cls-2" d="M1954.53,3165.68s-219-46.27-222.11-351.66-40.1-348.58-58.61-391.77S1572,2135.37,1430.12,2169.3s-311.56,67.87-376.34-24.67-129.56-141.9-67.87-308.48,67.87-302.31,280.72-382.51,166.57-132.64,265.28-77.12,108,129.56,188.17,141.9,197.43,30.85,249.87,0,33.47-64.78,80-52.44,52.67,27.76,123.62,37,126.48,27.76,160.41-6.17,77.12-104.88,21.59-114.14-70.95,18.51-135.73,6.17-98.71-3.08-108-49.35-15.43-74-40.1-95.63-49.36-33.93-71,0-40.1,64.78-74,46.27-46.27-43.19-58.61-80.2,3.09-74-46.27-64.78-89.46-15.43-77.12,18.5,27.77,30.85,24.68,80.21-24.68,70.95-49.36,74-38.3-37-48.45-83.29,11.44-89.25-25.58-90.89-71-1.65-101.8,44.62-120.3,89.46-175.83,111.05-104.88,52.44-132.64,18.51-49.36-43.18-24.68-83.29,67.86-49.35,114.14-58.61,80.2-37,80.2-71,0-67.86-30.85-71-49.35,49.36-67.86,52.45S1272.79,1074,1245,1034s-77.12-80.07-37-110.92,95.63-61.69,123.4-58.61,21.59,21.6,33.93,52.44,15.42,74,58.61,83.29,98.71,0,120.3-15.42,49.36-52.44,67.87-71,26.47-40.1,59.51-37,141,43.19,184.18,30.85,86.38-37,95.63-77.12,67.87-83.29,43.19-117.22-33.93-58.61-64.78-37-64.78,104.88-101.8,111.05-126.47,15.43-169.66,12.34-86.37,18.51-92.54-12.34,18.51-61.69,80.2-86.37,163.49-64.78,203.59-83.29,55.53-27.76,129.56-24.68,101.8,15.43,166.58,30.85,126.48,3.09,188.17,52.44,145,52.44,178.92,27.77,101.79-64.78,114.13-86.38,22.94-37.2,22.94-37.2,334.89,100.44,644.44,485.76c140.82,175.3,248.56,388.27,307,655.86,0,0,9.63,15.35-73.66,64.7s-108,30.85-101.8,98.72,37,114.13,9.26,141.9-46.27,49.45-95.63,27.81-74-64.83-83.29-120.36,0-67.86-21.59-132.64-15.42-86.37-74-111-6.17-9.26-104.89-21.6-92.54-6.17-145-52.44-43.19-83.29-101.8-61.69-95.62,6.17-67.86,58.61,43.18,67.86,80.2,83.29,98.71-21.6,98.71,40.1,15.43,89.46-37,114.13-95.63,101.8-163.49,92.55-67.87-15.61-111.06-71-80.2-80.12-111-129.47-61.69-61.7-74-114.14-6.17-77.12-49.36-64.78-98.71,21.6-74,64.78,18.51,49.36,61.69,108,74,145,123.39,191.25S2553,2012,2608.49,2033.58s74,30.84,95.63,58.61,80.2,33.93-12.34,117.22S2540.63,2295.78,2516,2351.3s-67.86,18.51-55.52,126.48,33.93,98.71,9.25,188.17-67.86,104.88-101.8,182-21.59,80.2-67.86,157.32-49.36,104.88-138.82,138.82S2059.41,3184.19,1954.53,3165.68Z"/><path class="cls-2" d="M2573,2799.37c13.88-23.14,13.88-41.65,50.9-50.9s53.21-39.33,71.72,11.57-16.2,106.42-30.08,127.24-27.76,76.35-69.41,71.72-64.77-16.19-57.83-53.21S2573,2799.37,2573,2799.37Z"/></g><polygon points="3612.71 2322.69 488.4 2327.08 463.93 2173.86 460.08 2042.15 463.92 1928.59 479.4 1825.55 3621.49 1828.79 3635.92 1940.3 3635.92 2048 3635.92 2172.98 3612.71 2322.69"/></svg>