<svg id="Saturn" xmlns="http://www.w3.org/2000/svg" viewBox="0 0 5204.15 3172"><defs><style>.cls-1{fill:#ffe8b3;}.cls-2{fill:#9c8e84;}</style></defs><title>Saturn_Aequator</title><circle class="cls-1" cx="2625.72" cy="1586" r="1586"/><polygon points="4188.5 1860.69 1064.19 1865.08 1039.72 1711.86 1035.87 1580.15 1039.72 1466.59 1055.19 1363.55 4197.28 1366.79 4211.72 1478.3 4211.72 1586 4211.72 1710.98 4188.5 1860.69"/><path class="cls-2" d="M614.77,1372.06s-137,323.48-125.55,438.47c0,0-421.94,449.46-256.84,669.6S576.36,2847,892.81,2870s1256.64,78,2128-348.55,839.29-857.64,816.36-944.78S3719.79,1292.4,3385,1191.5c0,0-301.9-357.28-347.76-384.79,0,0,777.05-46.44,1226.5,210.39s394.42,527.43,298.11,710.88S3961,2420.51,3529.93,2599.37s-1408,559.53-2375.7,577.88-1660.4-128.42-1726.82-655.84S346.47,1479.84,614.77,1372.06Z" transform="translate(575.79 -462)"/></svg>